<?xml version="1.0" encoding="UTF-8" standalone="no"?>
<svg id="svg2" xmlns:rdf="http://www.w3.org/1999/02/22-rdf-syntax-ns#" xmlns="http://www.w3.org/2000/svg" fill="#000000" height="24" width="24" version="1.1" xmlns:cc="http://creativecommons.org/ns#" xmlns:dc="http://purl.org/dc/elements/1.1/" viewBox="0 0 24 24">
 <metadata id="metadata12">
  <rdf:RDF>
   <cc:Work rdf:about="">
    <dc:format>image/svg+xml</dc:format>
    <dc:type rdf:resource="http://purl.org/dc/dcmitype/StillImage"/>
    <dc:title/>
   </cc:Work>
  </rdf:RDF>
 </metadata>
 <path id="path4" fill="#fff" d="m4 8h4v-4h-4v4zm6 12h4v-4h-4v4zm-6 0h4v-4h-4v4zm0-6h4v-4h-4v4zm6 0h4v-4h-4v4zm6-10v4h4v-4h-4zm-6 4h4v-4h-4v4zm6 6h4v-4h-4v4zm0 6h4v-4h-4v4z"/>
 <path id="path6" d="m0 0h24v24h-24z" fill="none"/>
</svg>
